<svg xmlns="http://www.w3.org/2000/svg" width="24" height="24" viewBox="0 0 24 24">
  <path fill="#00599C" d="M12 2C6.48 2 2 6.48 2 12s4.48 10 10 10 10-4.48 10-10S17.52 2 12 2zm0 18c-4.41 0-8-3.59-8-8s3.59-8 8-8 8 3.59 8 8-3.59 8-8 8z"/>
  <path fill="#00599C" d="M15 9h-2V7h-2v2H9v2h2v2h2v-2h2z"/>
  <path fill="#00599C" d="M19 9h-2V7h-2v2h2v2h-2v2h2v-2h2z"/>
  <path fill="#00599C" d="M9.5 15.5c1.84 0 3.5-1.66 3.5-3.5s-1.66-3.5-3.5-3.5-3.5 1.66-3.5 3.5 1.66 3.5 3.5 3.5zm0-5c.83 0 1.5.67 1.5 1.5s-.67 1.5-1.5 1.5-1.5-.67-1.5-1.5.67-1.5 1.5-1.5z"/>
</svg>