<svg xmlns="http://www.w3.org/2000/svg" viewBox="0 0 24 24" fill="#00ADD8">
  <path d="M1.811 10.231c-.047 0-.058-.023-.035-.059l.246-.315c.023-.035.081-.058.128-.058h4.172c.046 0 .058.035.035.07l-.199.303c-.023.036-.082.059-.117.059H1.811zM.047 11.306c-.047 0-.058-.024-.035-.059l.245-.315c.024-.035.082-.059.129-.059h5.734c.047 0 .07.024.058.059l-.093.315c-.012.035-.058.059-.093.059H.047zM2.828 12.381c-.047 0-.059-.024-.035-.059l.163-.315c.023-.035.081-.059.128-.059h2.594c.047 0 .07.035.07.082l-.012.281c0 .047-.023.07-.058.07H2.828zM21.5 11.306c.047 0 .07.024.07.059 0 .047-.023.082-.07.082h-2.594c-.047 0-.07-.035-.07-.082 0-.035.023-.059.07-.059h2.594zM19.24 10.231c.047 0 .07.023.07.058 0 .047-.023.082-.07.082h-4.172c-.047 0-.07-.035-.07-.082 0-.035.023-.058.07-.058h4.172zM16.929 12.381c.047 0 .07.024.07.07 0 .035-.023.059-.07.059h-2.594c-.047 0-.07-.024-.07-.059 0-.046.023-.07.07-.07h2.594z"/>
  <path d="M10.13 7.915c0-.598-.48-1.078-1.078-1.078s-1.078.48-1.078 1.078.48 1.078 1.078 1.078 1.078-.48 1.078-1.078zm4.688 0c0-.598-.48-1.078-1.078-1.078s-1.078.48-1.078 1.078.48 1.078 1.078 1.078 1.078-.48 1.078-1.078z"/>
  <path d="M12 2C6.48 2 2 6.48 2 12s4.48 10 10 10 10-4.48 10-10S17.52 2 12 2zm0 18c-4.41 0-8-3.59-8-8s3.59-8 8-8 8 3.59 8 8-3.59 8-8 8z"/>
</svg>