<svg xmlns="http://www.w3.org/2000/svg" width="24" height="24" viewBox="0 0 24 24">
  <defs>
    <linearGradient id="a" x1="70.252" y1="1237.476" x2="170.659" y2="1151.089" gradientTransform="matrix(.16 0 0 -.16 0 200)" gradientUnits="userSpaceOnUse">
      <stop offset="0" stop-color="#5A9FD4"/>
      <stop offset="1" stop-color="#306998"/>
    </linearGradient>
    <linearGradient id="b" x1="209.474" y1="1098.811" x2="173.62" y2="1149.537" gradientTransform="matrix(.16 0 0 -.16 0 200)" gradientUnits="userSpaceOnUse">
      <stop offset="0" stop-color="#FFD43B"/>
      <stop offset="1" stop-color="#FFE873"/>
    </linearGradient>
  </defs>
  <path fill="url(#a)" d="M11.908 2c-1.288 0-2.52.148-3.6.396-3.186.727-3.764 2.25-3.764 5.06v3.71h7.527v.927H4.544c-2.83 0-5.307 1.7-6.08 4.94-.89 3.7-.93 6.004 0 9.874.69 2.89 2.332 4.94 5.162 4.94h3.34v-4.45c0-3.212 2.78-6.044 6.08-6.044h7.52c2.704 0 4.844-2.228 4.844-4.946V7.456c0-2.638-2.227-4.62-4.844-5.06-1.656-.28-3.37-.396-4.658-.396zm-4.07 3.008c.777 0 1.412.643 1.412 1.434 0 .787-.635 1.424-1.412 1.424-.78 0-1.413-.637-1.413-1.424 0-.79.633-1.434 1.413-1.434z"/>
  <path fill="url(#b)" d="M20.347 11.166v4.32c0 3.348-2.84 6.165-6.08 6.165h-7.52c-2.663 0-4.845 2.28-4.845 4.946v9.27c0 2.638 2.294 4.19 4.844 4.946 3.05.9 5.974 1.062 9.602 0 2.415-.707 4.844-2.13 4.844-4.946v-3.71h-7.52v-.927h12.365c2.83 0 3.885-1.973 4.844-4.94.992-3.05 .95-5.98 0-9.874-.683-2.815-1.988-4.94-4.818-4.94h-3.62zm-4.235 23.514c.778 0 1.413.636 1.413 1.424 0 .79-.635 1.433-1.413 1.433-.777 0-1.412-.643-1.412-1.433 0-.788.635-1.424 1.412-1.424z"/>
</svg>