<svg xmlns="http://www.w3.org/2000/svg" width="24" height="24" viewBox="0 0 24 24">
  <path fill="#000" d="M0 0h24v24H0V0z"/>
  <path d="M6.3 19.5c.6 1 1.4 1.8 2.8 1.8 1.2 0 2-.6 2-1.4 0-1-.8-1.3-2.1-1.9l-.7-.3c-2.1-.9-3.5-2-3.5-4.3 0-2.2 1.7-3.8 4.2-3.8 1.8 0 3.1.6 4.1 2.3l-2.2 1.4c-.5-.9-.9-1.2-1.9-1.2-.8 0-1.4.5-1.4 1.2 0 .8.5 1.2 1.7 1.7l.7.3c2.5 1.1 3.9 2.1 3.9 4.6 0 2.6-2 4-4.8 4-2.7 0-4.4-1.3-5.2-3l2.4-1.4zm10.4 0c.5.8 .9 1.5 1.9 1.5 1 0 1.6-.4 1.6-1.9V11h3v8.2c0 3.1-1.8 4.5-4.4 4.5-2.4 0-3.8-1.2-4.5-2.7l2.4-1.5z" fill="#000"/>
</svg>