<svg xmlns="http://www.w3.org/2000/svg" width="24" height="24" viewBox="0 0 24 24">
  <path fill="#007396" d="M8.851 17.114s-1.203.699.855.937c2.458.281 3.714.241 6.42-.271 0 0 .713.446 1.708.833-6.08 2.607-13.756-.151-8.983-1.499m-.735-3.37s-1.35 1.001.709 1.214c2.662.278 4.764.301 8.402-.408 0 0 .496.502 1.277.777-7.349 2.15-15.535.169-10.388-1.583M18.876 20.571s.89.734-0.98 1.304c-3.562 1.081-14.827 1.405-17.955.043-1.124-.489.983-1.168 1.646-1.31.692-.149 1.087-.122 1.087-.122-1.251-.882-8.091 1.731-3.474 2.481 12.582 2.041 22.935-0.919 19.676-2.396M9.419 13.068s-5.733 1.362-2.029 1.857c1.562.208 4.679.161 7.579-.082 2.371-.199 4.75-.623 4.75-.623s-0.836.357-1.441.77c-5.822 1.532-17.073.819-13.834-0.747 2.743-1.325 4.975-1.175 4.975-1.175m8.265 4.615c5.92-3.077 3.184-6.034 1.273-5.633-0.468.098-0.677.183-0.677.183s0.174-0.272.506-0.39c3.778-1.329 6.682 3.916-1.219 5.989 0-0.001.092-0.083.117-0.149M11.752 0s3.279 3.28-3.111 8.317c-5.119 4.041-1.167 6.342 0 8.973-2.987-2.697-5.182-5.073-3.709-7.282 2.162-3.244 8.143-4.814 6.82-10.008M12.826 23.93c5.682.363 14.404-0.201 14.606-2.873 0 0-0.397 1.014-4.695 1.819-4.848.909-10.822.803-14.366.247 0-0.001.726.602 4.455.807"/>
</svg>