<svg xmlns="http://www.w3.org/2000/svg" viewBox="0 0 24 24" fill="#000">
  <path d="M7.01 10.207h-.944l-.515 2.648h.838c.556 0 .982-.122 1.292-.391.313-.27.47-.663.47-1.178 0-.353-.093-.621-.276-.804-.183-.183-.463-.275-.865-.275zm-3.818 5.441L4.505 9.48h3.125c.883 0 1.54.213 1.97.64.43.427.646 1.034.646 1.822 0 .928-.267 1.685-.8 2.27-.533.585-1.257.878-2.173.878H5.192zm11.672-5.441h-.943l-.516 2.648h.838c.557 0 .983-.122 1.293-.391.312-.27.469-.663.469-1.178 0-.353-.093-.621-.275-.804-.184-.183-.464-.275-.866-.275zm-3.818 5.441L11.359 9.48h3.125c.883 0 1.54.213 1.97.64.43.427.646 1.034.646 1.822 0 .928-.267 1.685-.8 2.27-.533.585-1.257.878-2.173.878h-2.081z" fill="#000"/>
  <ellipse cx="12" cy="12" rx="11" ry="4" fill="none" stroke="#000" stroke-width="1"/>
</svg>