<svg xmlns="http://www.w3.org/2000/svg" viewBox="0 0 24 24" fill="#CC342D">
  <path d="M20.156 2.3l1.544 1.544L12.003 12.5 2.3 2.8l1.544-1.544L12 9.412 20.156 2.3z"/>
  <path d="M12 9.412l8.156-7.112L21.7 3.844 12 13.544 2.3 3.844l1.544-1.544L12 9.412z"/>
  <path d="M12 13.544l9.7-9.7.7.7-9.7 9.7L2 4.544l.7-.7L12 13.544z"/>
  <path d="M12 13.544L21.7 4.244l.3.3-9.7 9.7L2.3 4.544l.3-.3L12 13.544z"/>
  <path d="M12 13.544l9.7-9.7v1.4l-9.7 9.7L2 5.244v-1.4L12 13.544z"/>
  <path d="M12 13.544l9.7-9.7v2.8l-9.7 9.7L2 6.644v-2.8L12 13.544z"/>
  <path d="M12 13.544l9.7-9.7v4.2l-9.7 9.7L2 8.044v-4.2L12 13.544z"/>
  <path d="M12 13.544l9.7-9.7v5.6l-9.7 9.7L2 9.444v-5.6L12 13.544z"/>
  <path d="M12 13.544l9.7-9.7v7l-9.7 9.7L2 10.844v-7L12 13.544z"/>
  <path d="M12 13.544l9.7-9.7v8.4l-9.7 9.7L2 12.244v-8.4L12 13.544z"/>
  <path d="M12 13.544l9.7-9.7v9.8l-9.7 9.7L2 13.644v-9.8L12 13.544z"/>
  <path d="M12 13.544l9.7-9.7v11.2l-9.7 9.7L2 15.044v-11.2L12 13.544z"/>
  <path d="M12 13.544l9.7-9.7v12.6l-9.7 9.7L2 16.444v-12.6L12 13.544z"/>
  <path d="M12 13.544l9.7-9.7V18l-9.7 9.7L2 18v-14.156L12 13.544z"/>
</svg>