<svg xmlns="http://www.w3.org/2000/svg" viewBox="0 0 24 24" fill="#CE422B">
  <path d="M23.8346 11.7033l-1.0073-.6236a13.7268 13.7268 0 0 0-.0283-.2936l.8656-.8069a.3483.3483 0 0 0-.1154-.5938l-1.0821-.4456a13.395 13.395 0 0 0-.0991-.2859l.6904-.9587a.3462.3462 0 0 0-.2257-.5476l-1.1249-.2346a9.5923 9.5923 0 0 0-.1591-.2725l.4819-1.0657a.3456.3456 0 0 0-.3347-.4938l-1.1332-.0123a11.0849 11.0849 0 0 0-.2112-.2479l.2506-1.1387a.3442.3442 0 0 0-.4357-.4163l-1.1063.2085a8.6653 8.6653 0 0 0-.2537-.2141l.0123-1.1332a.3456.3456 0 0 0-.4938-.3347l-1.0657.4819a9.5923 9.5923 0 0 0-.2725-.1591l-.2346-1.1249a.3462.3462 0 0 0-.5476-.2257l-.9587.6904a13.395 13.395 0 0 0-.2859-.0991l-.4456-1.0821a.3483.3483 0 0 0-.5938-.1154l-.8069.8656a13.7268 13.7268 0 0 0-.2936-.0283l-.6236-1.0073A.3462.3462 0 0 0 12 0a.3462.3462 0 0 0-.3347.1654l-.6236 1.0073a13.7268 13.7268 0 0 0-.2936.0283l-.8069-.8656a.3483.3483 0 0 0-.5938.1154l-.4456 1.0821a13.395 13.395 0 0 0-.2859.0991l-.9587-.6904a.3462.3462 0 0 0-.5476.2257l-.2346 1.1249a9.5923 9.5923 0 0 0-.2725.1591l-1.0657-.4819a.3456.3456 0 0 0-.4938.3347l.0123 1.1332a8.6653 8.6653 0 0 0-.2537.2141l-1.1063-.2085a.3442.3442 0 0 0-.4357.4163l.2506 1.1387a11.0849 11.0849 0 0 0-.2112.2479l-1.1332.0123a.3456.3456 0 0 0-.3347.4938l.4819 1.0657a9.5923 9.5923 0 0 0-.1591.2725l-1.1249.2346a.3462.3462 0 0 0-.2257.5476l.6904.9587a13.395 13.395 0 0 0-.0991.2859l-1.0821.4456a.3483.3483 0 0 0-.1154.5938l.8656.8069a13.7268 13.7268 0 0 0-.0283.2936l-1.0073.6236A.3462.3462 0 0 0 0 12a.3462.3462 0 0 0 .1654.3347l1.0073.6236a13.7268 13.7268 0 0 0 .0283.2936l-.8656.8069a.3483.3483 0 0 0 .1154.5938l1.0821.4456a13.395 13.395 0 0 0 .0991.2859l-.6904.9587a.3462.3462 0 0 0 .2257.5476l1.1249.2346a9.5923 9.5923 0 0 0 .1591.2725l-.4819 1.0657a.3456.3456 0 0 0 .3347.4938l1.1332.0123a11.0849 11.0849 0 0 0 .2112.2479l-.2506 1.1387a.3442.3442 0 0 0 .4357.4163l1.1063-.2085a8.6653 8.6653 0 0 0 .2537.2141l-.0123 1.1332a.3456.3456 0 0 0 .4938.3347l1.0657-.4819a9.5923 9.5923 0 0 0 .2725.1591l.2346 1.1249a.3462.3462 0 0 0 .5476.2257l.9587-.6904a13.395 13.395 0 0 0 .2859.0991l.4456 1.0821a.3483.3483 0 0 0 .5938.1154l.8069-.8656a13.7268 13.7268 0 0 0 .2936.0283l.6236 1.0073A.3462.3462 0 0 0 12 24a.3462.3462 0 0 0 .3347-.1654l.6236-1.0073a13.7268 13.7268 0 0 0 .2936-.0283l.8069.8656a.3483.3483 0 0 0 .5938-.1154l.4456-1.0821a13.395 13.395 0 0 0 .2859-.0991l.9587.6904a.3462.3462 0 0 0 .5476-.2257l.2346-1.1249a9.5923 9.5923 0 0 0 .2725-.1591l1.0657.4819a.3456.3456 0 0 0 .4938-.3347l-.0123-1.1332a8.6653 8.6653 0 0 0 .2537-.2141l1.1063.2085a.3442.3442 0 0 0 .4357-.4163l-.2506-1.1387a11.0849 11.0849 0 0 0 .2112-.2479l1.1332-.0123a.3456.3456 0 0 0 .3347-.4938l-.4819-1.0657a9.5923 9.5923 0 0 0 .1591-.2725l1.1249-.2346a.3462.3462 0 0 0 .2257-.5476l-.6904-.9587a13.395 13.395 0 0 0 .0991-.2859l1.0821-.4456a.3483.3483 0 0 0 .1154-.5938l-.8656-.8069a13.7268 13.7268 0 0 0 .0283-.2936l1.0073-.6236A.3462.3462 0 0 0 24 12a.3462.3462 0 0 0-.1654-.2967zM12 18.5a6.5 6.5 0 1 1 6.5-6.5 6.5 6.5 0 0 1-6.5 6.5z"/>
  <circle cx="12" cy="12" r="4.5" fill="#fff"/>
</svg>