<svg xmlns="http://www.w3.org/2000/svg" width="24" height="24" viewBox="0 0 24 24">
  <path fill="#000" d="M0 12v12h24V0H0v12zm19.34-6.8v.86h-4.59v11.87h-1.64V6.06H8.53v-.86h10.81zM5.31 7.14a3.5 3.5 0 0 1 1.77-.45c.62 0 1.14.11 1.54.33.41.22.72.53.95.93.23.4.34.85.34 1.36 0 .5-.11.95-.32 1.34-.21.39-.52.7-.91.93a2.72 2.72 0 0 1-1.41.34h-.31v3.94H5.31V7.14zm1.64 3.37c.32 0 .58-.11.78-.32.2-.21.3-.49.3-.84 0-.36-.1-.65-.3-.87-.2-.22-.46-.33-.78-.33-.33 0-.59.11-.79.33-.2.22-.3.51-.3.87 0 .35.1.63.3.84.2.21.46.32.79.32z"/>
</svg>